<svg height="800" width="800" version="1.1" id="Layer_1" xmlns="http://www.w3.org/2000/svg" viewBox="0 0 512 512" xml:space="preserve"><path style="fill:#47ceac" d="M0 256.006C0 397.402 114.606 512.004 255.996 512 397.394 512.004 512 397.402 512 256.006 512.009 114.61 397.394 0 255.996 0 114.606 0 0 114.614 0 256.006z"/><path style="fill:#36bb9a" d="M509.685 290.004c-.137-.117-198.544-198.699-199.124-199.124-1.274-1.739-3.232-2.942-5.553-2.942h-98.016a7 7 0 0 0-7.002 7.002v175.028h-84.014a7.003 7.003 0 0 0-4.953 11.951l140.025 140.092 1.494 1.494 76.209 76.21 1.353 1.353c94.749-28.607 166.246-110.627 179.581-211.064z"/><path style="fill:#f4f6f9" d="M402.491 274.289a6.997 6.997 0 0 0-6.468-4.321h-84.014V94.94a7 7 0 0 0-7.002-7.002h-98.016a7 7 0 0 0-7.002 7.002v175.028h-84.014a7.003 7.003 0 0 0-4.953 11.951l140.022 140.092a7.016 7.016 0 0 0 4.954 2.051 7.018 7.018 0 0 0 4.954-2.051l140.022-140.092a7.002 7.002 0 0 0 1.517-7.63zM256 407.154 132.875 283.97h74.117a7 7 0 0 0 7.002-7.002V101.94h84.014v175.028a7 7 0 0 0 7.002 7.002h74.117L256 407.154z"/></svg>